<svg xmlns="http://www.w3.org/2000/svg" xmlns:xlink="http://www.w3.org/1999/xlink" width="810" height="227.1"><rect width="810" height="227.1" rx="0" ry="0" class="a"/><svg height="217.1" viewBox="0 0 80 21.71" width="800" x="5" xmlns="http://www.w3.org/2000/svg" xmlns:xlink="http://www.w3.org/1999/xlink" y="5"><style>.a{fill:#1e2127}.d{fill:#98c379}.e{fill:#abb2bf;font-weight:700}.f{fill:#56b6c2}.g{fill:#abb2bf}</style><g font-size="1.67" font-family="Monaco,Consolas,Menlo,'Bitstream Vera Sans Mono','Powerline Symbols',monospace"><defs><symbol id="a"><path fill="transparent" d="M0 0h80v11H0z"/></symbol></defs><path class="a" d="M0 0h80v21.71H0z"/><svg width="80"><svg><use xlink:href="#a"/><text y="1.67" class="d">❯</text><text x="2.004" y="1.67" class="e">node</text><text x="7.014" y="1.67" class="f">examples/checkbox.js</text><text y="3.841" class="d">?</text><text x="2.004" y="3.841" class="e">Select</text><text x="9.018" y="3.841" class="e">toppings</text><text x="1.002" y="6.012" class="d">◉</text><text x="3.006" y="6.012" class="g">Cheddar</text><text x="1.002" y="8.183" class="g">◯</text><text x="3.006" y="8.183" class="g">Parmesan</text><text x="2.004" y="10.354" class="g">=</text><text x="4.008" y="10.354" class="g">The</text><text x="8.016" y="10.354" class="g">usual</text><text x="14.028" y="10.354" class="g">=</text><text y="12.525" class="f">❯</text><text x="1.002" y="12.525" class="d">◉</text><text x="3.006" y="12.525" class="g">Mushroom</text><text x="1.002" y="14.696" class="g">◯</text><text x="3.006" y="14.696" class="g">Tomato</text><text x="2.004" y="16.867" class="g">=</text><text x="4.008" y="16.867" class="g">The</text><text x="8.016" y="16.867" class="g">extras</text><text x="15.03" y="16.867" class="g">=</text><text x="1.002" y="19.038" class="g">◯</text><text x="3.006" y="19.038" class="g">Pineapple</text><text y="21.209" class="g">(Move</text><text x="6.012" y="21.209" class="g">up</text><text x="9.018" y="21.209" class="g">and</text><text x="13.026" y="21.209" class="g">down</text><text x="18.036" y="21.209" class="g">to</text><text x="21.042" y="21.209" class="g">reveal</text><text x="28.056" y="21.209" class="g">more</text><text x="33.066" y="21.209" class="g">choices)</text></svg></svg></g></svg></svg>