<svg xmlns="http://www.w3.org/2000/svg" xmlns:xlink="http://www.w3.org/1999/xlink" width="810" height="227.1"><rect width="810" height="227.1" rx="0" ry="0" class="a"/><svg height="217.1" viewBox="0 0 80 21.71" width="800" x="5" xmlns="http://www.w3.org/2000/svg" xmlns:xlink="http://www.w3.org/1999/xlink" y="5"><style>.a{fill:#1e2127}.d{fill:#5c6370}.f{fill:#98c379}.g{fill:#abb2bf;font-weight:700}.h{fill:#56b6c2}.i{fill:#abb2bf}</style><g font-size="1.67" font-family="Monaco,Consolas,Menlo,'Bitstream Vera Sans Mono','Powerline Symbols',monospace"><defs><symbol id="a"><path fill="transparent" d="M0 0h80v11H0z"/></symbol><symbol id="b"><path class="d" d="M0 0h1.102v2.171H0z"/></symbol></defs><path class="a" d="M0 0h80v21.71H0z"/><svg width="80"><svg><use xlink:href="#a"/><use xlink:href="#b" x="10.996" y="19.514"/><text y="1.67" fill="#61afef">~/Documents/oss/Inquirer.js</text><text x="28.056" y="1.67" class="d">master*</text><text y="3.841" class="f">❯</text><text x="2.004" y="3.841" class="g">node</text><text x="7.014" y="3.841" class="h">examples/expand.js</text><text y="6.012" class="f">?</text><text x="2.004" y="6.012" class="g">Conflict</text><text x="11.022" y="6.012" class="g">on</text><text x="14.028" y="6.012" class="g">`file.js`:</text><text x="26.052" y="6.012" class="i">(yadxH)</text><text x="2.004" y="8.183" class="i">y)</text><text x="5.01" y="8.183" class="i">Overwrite</text><text x="2.004" y="10.354" class="i">a)</text><text x="5.01" y="10.354" class="i">Overwrite</text><text x="15.03" y="10.354" class="i">this</text><text x="20.04" y="10.354" class="i">one</text><text x="24.048" y="10.354" class="i">and</text><text x="28.056" y="10.354" class="i">all</text><text x="32.064" y="10.354" class="i">next</text><text x="2.004" y="12.525" class="h">d)</text><text x="5.01" y="12.525" class="h">Show</text><text x="10.02" y="12.525" class="h">diff</text><text x="3.006" y="14.696" class="i">──────────────</text><text x="2.004" y="16.867" class="i">x)</text><text x="5.01" y="16.867" class="i">Abort</text><text x="2.004" y="19.038" class="i">h)</text><text x="5.01" y="19.038" class="i">Help,</text><text x="11.022" y="19.038" class="i">list</text><text x="16.032" y="19.038" class="i">all</text><text x="20.04" y="19.038" class="i">options</text><text x="2.004" y="21.209" class="i">Answer:</text><text x="10.02" y="21.209" class="i">d</text></svg></svg></g></svg></svg>