<svg xmlns="http://www.w3.org/2000/svg" xmlns:xlink="http://www.w3.org/1999/xlink" width="810" height="227.1"><rect width="810" height="227.1" rx="0" ry="0" class="a"/><svg height="217.1" viewBox="0 0 80 21.71" width="800" x="5" xmlns="http://www.w3.org/2000/svg" xmlns:xlink="http://www.w3.org/1999/xlink" y="5"><style>.a{fill:#1e2127}.d{fill:#5c6370}.f{fill:#98c379}.g{fill:#abb2bf;font-weight:700}.h{fill:#56b6c2}.j{fill:#abb2bf}</style><g font-size="1.67" font-family="Monaco,Consolas,Menlo,'Bitstream Vera Sans Mono','Powerline Symbols',monospace"><defs><symbol id="a"><path fill="transparent" d="M0 0h80v11H0z"/></symbol><symbol id="b"><path class="d" d="M0 0h1.102v2.171H0z"/></symbol></defs><path class="a" d="M0 0h80v21.71H0z"/><svg width="80"><svg><use xlink:href="#a"/><use xlink:href="#b" x="26.996" y="8.659"/><text y="1.67" fill="#61afef">~/Documents/oss/Inquirer.js</text><text x="28.056" y="1.67" class="d">master*</text><text y="3.841" class="f">❯</text><text x="2.004" y="3.841" class="g">node</text><text x="7.014" y="3.841" class="h">examples/input.js</text><text y="6.012" class="f">?</text><text x="2.004" y="6.012" class="g">What&apos;s</text><text x="9.018" y="6.012" class="g">your</text><text x="14.028" y="6.012" class="g">first</text><text x="20.04" y="6.012" class="g">name</text><text x="25.05" y="6.012" class="h">Simon</text><text y="8.183" class="f">?</text><text x="2.004" y="8.183" class="g">What&apos;s</text><text x="9.018" y="8.183" class="g">your</text><text x="14.028" y="8.183" class="g">last</text><text x="19.038" y="8.183" class="g">name</text><text x="24.048" y="8.183" class="h">Doe</text><text y="10.354" class="f">?</text><text x="2.004" y="10.354" class="g">What&apos;s</text><text x="9.018" y="10.354" class="g">your</text><text x="14.028" y="10.354" class="g">phone</text><text x="20.04" y="10.354" class="g">number</text><text y="12.525" fill="#e06c75">&gt;&gt;</text><text x="3.006" y="12.525" class="j">Please</text><text x="10.02" y="12.525" class="j">enter</text><text x="16.032" y="12.525" class="j">a</text><text x="18.036" y="12.525" class="j">valid</text><text x="24.048" y="12.525" class="j">phone</text><text x="30.06" y="12.525" class="j">number</text></svg></svg></g></svg></svg>