<svg xmlns="http://www.w3.org/2000/svg" xmlns:xlink="http://www.w3.org/1999/xlink" width="810" height="227.1"><rect width="810" height="227.1" rx="0" ry="0" class="a"/><svg height="217.1" viewBox="0 0 80 21.71" width="800" x="5" xmlns="http://www.w3.org/2000/svg" xmlns:xlink="http://www.w3.org/1999/xlink" y="5"><style>.a{fill:#1e2127}.f{fill:#98c379}.g{fill:#abb2bf;font-weight:700}.h{fill:#56b6c2}.i{fill:#abb2bf}</style><g font-size="1.67" font-family="Monaco,Consolas,Menlo,'Bitstream Vera Sans Mono','Powerline Symbols',monospace"><defs><symbol id="a"><path fill="transparent" d="M0 0h80v11H0z"/></symbol></defs><path class="a" d="M0 0h80v21.71H0z"/><svg width="80"><svg><use xlink:href="#a"/><text y="1.67" fill="#61afef">~/Documents/oss/Inquirer.js/examples</text><text x="37.074" y="1.67" fill="#5c6370">master*</text><text y="3.841" class="f">❯</text><text x="2.004" y="3.841" class="g">node</text><text x="7.014" y="3.841" class="h">list.js</text><text y="6.012" class="f">?</text><text x="2.004" y="6.012" class="g">What</text><text x="7.014" y="6.012" class="g">do</text><text x="10.02" y="6.012" class="g">you</text><text x="14.028" y="6.012" class="g">want</text><text x="19.038" y="6.012" class="g">to</text><text x="22.044" y="6.012" class="g">do?</text><text x="26.052" y="6.012" class="h">Order</text><text x="32.064" y="6.012" class="h">a</text><text x="34.068" y="6.012" class="h">pizza</text><text y="8.183" class="f">?</text><text x="2.004" y="8.183" class="g">What</text><text x="7.014" y="8.183" class="g">size</text><text x="12.024" y="8.183" class="g">do</text><text x="15.03" y="8.183" class="g">you</text><text x="19.038" y="8.183" class="g">need?</text><text x="2.004" y="10.354" class="i">Jumbo</text><text x="2.004" y="12.525" class="i">Large</text><text y="14.696" class="h">❯</text><text x="2.004" y="14.696" class="h">Standard</text><text x="2.004" y="16.867" class="i">Medium</text><text x="2.004" y="19.038" class="i">Small</text><text x="2.004" y="21.209" class="i">Micro</text></svg></svg></g></svg></svg>